<?xml version="1.0" encoding="UTF-8" standalone="no"?>
<!-- Created with Inkscape (http://www.inkscape.org/) -->
<svg
   xmlns:svg="http://www.w3.org/2000/svg"
   xmlns="http://www.w3.org/2000/svg"
   version="1.0"
   width="921.25983"
   height="248.03149"
   id="svg1877">
  <defs
     id="defs1879" />
  <g
     style="opacity:1;fill:black;fill-opacity:1"
     id="layer1">
    <path
       d="M 65.810198,116.71476 L 79.69252,116.71476 L 79.69252,119.46756 L 37.241576,119.46756 L 37.241576,116.71476 L 51.26634,116.71476 L 51.26634,30.495473 L 44.973072,30.495473 C 36.322442,30.495473 32.391852,32.065512 28.590592,37.436811 C 24.660356,42.937087 22.95886,48.050433 22.168348,56.572087 L 18.638506,56.572087 L 18.638506,27.213308 L 98.698819,27.213308 L 98.698819,56.572087 L 94.897559,56.572087 C 94.368189,48.447992 92.795315,43.337481 88.736103,37.305 C 85.464213,32.45563 80.743819,30.495473 73.012323,30.495473 L 65.810198,30.495473 L 65.810198,116.71476 L 65.810198,116.71476 z M 167.48468,70.454763 L 167.48468,29.966103 L 155.95193,29.966103 L 155.95193,27.213308 L 193.82173,27.213308 L 193.82173,29.966103 L 181.89921,29.966103 L 181.89921,116.71476 L 193.82173,116.71476 L 193.82173,119.46756 L 155.95193,119.46756 L 155.95193,116.71476 L 167.48468,116.71476 L 167.48468,73.476141 L 128.1763,73.476141 L 128.1763,116.71476 L 139.70906,116.71476 L 139.70906,119.46756 L 101.70992,119.46756 L 101.70992,116.71476 L 113.63244,116.71476 L 113.63244,29.966103 L 101.70992,29.966103 L 101.70992,27.213308 L 139.70906,27.213308 L 139.70906,29.966103 L 128.1763,29.966103 L 128.1763,70.454763 L 167.48468,70.454763 L 167.48468,70.454763 z M 267.33082,55.521142 L 263.78787,55.521142 C 263.1398,42.808111 261.95952,39.407244 257.50771,35.076615 C 253.83543,31.675749 249.64441,30.495473 241.12275,30.495473 L 222.38787,30.495473 L 222.38787,70.454763 L 228.54933,70.454763 C 240.99342,70.454763 244.79468,66.78496 244.79468,54.601654 L 244.79468,53.819291 C 244.79468,53.029134 244.79468,51.848858 244.79468,50.800394 L 248.06374,50.800394 L 248.06374,94.829527 L 244.79468,94.829527 C 244.79468,92.729763 244.92366,89.979802 244.92366,89.329251 C 244.92366,77.266771 241.51252,74.126692 228.54933,74.126692 L 222.38787,74.126692 L 222.38787,116.18539 L 240.47185,116.18539 C 249.11504,116.18539 253.96724,115.13693 257.89748,112.51594 C 265.0996,107.67401 267.07004,103.34338 267.4598,91.420511 C 267.4598,90.638149 267.4598,89.590039 267.58878,88.019999 L 271.12925,88.019999 L 271.79043,119.46756 L 195.92149,119.46756 L 195.92149,116.71476 L 207.84401,116.71476 L 207.84401,29.966103 L 195.92149,29.966103 L 195.92149,27.213308 L 267.86019,27.213308 L 267.33082,55.521142 L 267.33082,55.521142 z M 29.641891,136.39004 L 17.716537,136.39004 L 17.716537,133.63724 L 56.108269,133.63724 L 56.108269,136.39004 L 44.185395,136.39004 L 44.185395,223.1309 L 56.108269,223.1309 L 56.108269,225.88086 L 17.716537,225.88086 L 17.716537,223.1309 L 29.641891,223.1309 L 29.641891,136.39004 L 29.641891,136.39004 z M 133.5476,199.67527 L 133.5476,136.39004 L 120.05221,136.39004 L 120.05221,133.63724 L 149.27138,133.63724 L 149.27138,136.39004 L 137.3485,136.39004 L 137.3485,226.53177 L 135.24661,227.19295 L 75.891615,139.00854 L 75.891615,223.1309 L 89.655591,223.1309 L 89.655591,225.88086 L 60.167481,225.88086 L 60.167481,223.1309 L 72.090355,223.1309 L 72.090355,136.39004 L 60.167481,136.39004 L 60.167481,133.63724 L 89.655591,133.63724 L 133.5476,199.67527 L 133.5476,199.67527 z M 163.37764,136.39004 L 151.45512,136.39004 L 151.45512,133.63724 L 200.19685,133.63724 C 227.32157,133.63724 241.46752,149.23204 241.46752,179.09929 C 241.46752,198.36354 235.18488,213.42897 223.91291,220.63889 C 218.41016,224.31082 211.19988,225.88086 200.45764,225.88086 L 151.45512,225.88086 L 151.45512,223.1309 L 163.37764,223.1309 L 163.37764,136.39004 z M 196.78535,222.60118 C 205.82894,222.60118 210.93909,220.63889 215.53086,215.52838 C 221.68169,208.45807 225.35397,194.95488 225.35397,179.49968 C 225.35397,160.75417 220.24098,145.5626 212.11937,140.1913 C 208.31811,137.69929 204.51685,136.90913 196.39559,136.90913 L 177.9215,136.90913 L 177.9215,222.60118 L 196.78535,222.60118 z M 311.83405,161.93693 L 308.29358,161.93693 C 307.64267,149.23204 306.46275,145.82055 302.00279,141.50055 C 298.34114,138.08905 294.15011,136.90913 285.62846,136.90913 L 266.89358,136.90913 L 266.89358,176.8787 L 273.05504,176.8787 C 285.49665,176.8787 289.29791,173.20889 289.29791,161.01496 L 289.29791,160.23543 C 289.29791,159.44492 289.29791,158.265 289.29791,157.22433 L 292.56944,157.22433 L 292.56944,201.24531 L 289.29791,201.24531 C 289.29791,199.1459 289.42972,196.39594 289.42972,195.74504 C 289.42972,183.69071 286.01822,180.54035 273.05504,180.54035 L 266.89358,180.54035 L 266.89358,222.60118 L 284.97756,222.60118 C 293.62074,222.60118 298.47047,221.56086 302.4007,218.93988 C 309.60283,214.08732 311.57326,209.76732 311.96303,197.84445 C 311.96303,197.05429 311.96303,196.00334 312.09484,194.4333 L 315.63531,194.4333 L 316.28586,225.88086 L 240.4272,225.88086 L 240.4272,223.1309 L 252.34972,223.1309 L 252.34972,136.39004 L 240.4272,136.39004 L 240.4272,133.63724 L 312.35563,133.63724 L 311.83405,161.93693 z M 346.59035,223.1309 L 359.29275,223.1309 L 359.29275,225.88086 L 320.11334,225.88086 L 320.11334,223.1309 L 332.04649,223.1309 L 332.04649,136.39004 L 320.11334,136.39004 L 320.11334,133.63724 L 361.13421,133.63724 C 379.34716,133.63724 388.25114,141.76134 388.25114,158.53358 C 388.25114,176.22 379.99806,183.81968 361.13421,183.81968 L 346.59035,183.81968 L 346.59035,223.1309 z M 354.31405,180.27956 C 369.12649,180.27956 373.1857,175.83023 373.1857,159.57425 C 373.1857,149.49283 370.82551,142.01929 366.76594,139.26933 C 364.01598,137.2989 361.78476,136.90913 354.58263,136.90913 L 346.59035,136.90913 L 346.59035,180.27956 L 354.31405,180.27956 z M 460.84854,161.93693 L 457.30806,161.93693 C 456.64688,149.23204 455.47724,145.82055 451.01763,141.50055 C 447.34535,138.08905 443.15432,136.90913 434.64295,136.90913 L 415.90806,136.90913 L 415.90806,176.8787 L 422.05924,176.8787 C 434.51113,176.8787 438.31239,173.20889 438.31239,161.01496 L 438.31239,160.23543 C 438.31239,159.44492 438.31239,158.265 438.31239,157.22433 L 441.58428,157.22433 L 441.58428,201.24531 L 438.31239,201.24531 C 438.31239,199.1459 438.44421,196.39594 438.44421,195.74504 C 438.44421,183.69071 435.03271,180.54035 422.05924,180.54035 L 415.90806,180.54035 L 415.90806,222.60118 L 433.98176,222.60118 C 442.63523,222.60118 447.48495,221.56086 451.40739,218.93988 C 458.61731,214.08732 460.57995,209.76732 460.97751,197.84445 C 460.97751,197.05429 460.97751,196.00334 461.10932,194.4333 L 464.6498,194.4333 L 465.30035,225.88086 L 389.43106,225.88086 L 389.43106,223.1309 L 401.35393,223.1309 L 401.35393,136.39004 L 389.43106,136.39004 L 389.43106,133.63724 L 461.37011,133.63724 L 460.84854,161.93693 z M 542.58944,199.67527 L 542.58944,136.39004 L 529.09688,136.39004 L 529.09688,133.63724 L 558.31357,133.63724 L 558.31357,136.39004 L 546.3907,136.39004 L 546.3907,226.53177 L 544.29129,227.19295 L 484.93629,139.00854 L 484.93629,223.1309 L 498.68964,223.1309 L 498.68964,225.88086 L 469.21216,225.88086 L 469.21216,223.1309 L 481.13503,223.1309 L 481.13503,136.39004 L 469.21216,136.39004 L 469.21216,133.63724 L 498.68964,133.63724 L 542.58944,199.67527 z M 572.32771,136.39004 L 560.40519,136.39004 L 560.40519,133.63724 L 609.14656,133.63724 C 636.27412,133.63724 650.42822,149.23204 650.42822,179.09929 C 650.42822,198.36354 644.13495,213.42897 632.87326,220.63889 C 627.3627,224.31082 620.16058,225.88086 609.41798,225.88086 L 560.40519,225.88086 L 560.40519,223.1309 L 572.32771,223.1309 L 572.32771,136.39004 z M 605.7457,222.60118 C 614.78928,222.60118 619.89979,220.63889 624.48058,215.52838 C 630.64204,208.45807 634.31432,194.95488 634.31432,179.49968 C 634.31432,160.75417 629.20133,145.5626 621.07971,140.1913 C 617.27845,137.69929 613.47755,136.90913 605.3453,136.90913 L 586.88184,136.90913 L 586.88184,222.60118 L 605.7457,222.60118 z M 722.84916,161.93693 L 719.30869,161.93693 C 718.65814,149.23204 717.47786,145.82055 713.02605,141.50055 C 709.35377,138.08905 705.16274,136.90913 696.64073,136.90913 L 677.90621,136.90913 L 677.90621,176.8787 L 684.06766,176.8787 C 696.51176,176.8787 700.31302,173.20889 700.31302,161.02559 L 700.31302,160.23543 C 700.31302,159.44492 700.31302,158.265 700.31302,157.22433 L 703.5927,157.22433 L 703.5927,201.24531 L 700.31302,201.24531 C 700.31302,199.1537 700.44199,196.39594 700.44199,195.74504 C 700.44199,183.69071 697.03085,180.54035 684.06766,180.54035 L 677.90621,180.54035 L 677.90621,222.60118 L 695.99018,222.60118 C 704.63337,222.60118 709.48558,221.56086 713.41581,218.93988 C 720.62857,214.08732 722.58837,209.76732 722.97814,197.84445 C 722.97814,197.05429 722.97814,196.00334 723.10711,194.4333 L 726.65042,194.4333 L 727.30877,225.88086 L 651.43983,225.88086 L 651.43983,223.1309 L 663.36235,223.1309 L 663.36235,136.39004 L 651.43983,136.39004 L 651.43983,133.63724 L 723.37853,133.63724 L 722.84916,161.93693 z M 804.61912,199.67527 L 804.61912,136.39004 L 791.11593,136.39004 L 791.11593,133.63724 L 820.3429,133.63724 L 820.3429,136.39004 L 808.40975,136.39004 L 808.40975,226.53177 L 806.31813,227.19295 L 746.96313,139.00854 L 746.96313,223.1309 L 760.71648,223.1309 L 760.71648,225.88086 L 731.23936,225.88086 L 731.23936,223.1309 L 743.16187,223.1309 L 743.16187,136.39004 L 731.23936,136.39004 L 731.23936,133.63724 L 760.71648,133.63724 L 804.61912,199.67527 z M 870.65467,223.1309 L 884.53699,223.1309 L 884.53699,225.88086 L 842.08888,225.88086 L 842.08888,223.1309 L 856.11081,223.1309 L 856.11081,136.90913 L 849.82038,136.90913 C 841.16656,136.90913 837.23632,138.47917 833.43506,143.85012 C 829.51262,149.36102 827.80298,154.47437 827.02345,162.98539 L 823.48298,162.98539 L 823.48298,133.63724 L 903.54329,133.63724 L 903.54329,162.98539 L 899.74203,162.98539 C 899.22045,154.86413 897.64262,149.75362 893.58057,143.72114 C 890.30868,138.87956 885.58829,136.90913 877.85679,136.90913 L 870.65467,136.90913 L 870.65467,223.1309 z M 376.29956,69.719527 C 376.6709,69.906614 376.20708,70.910433 375.26952,70.660275 C 374.57149,70.473189 374.38688,69.748582 374.60834,69.285118 C 374.70295,69.079606 375.01653,68.995275 375.04558,69.190157 C 375.08244,69.377244 375.04558,69.656456 375.33259,69.748582 C 375.61181,69.840708 375.86232,69.785433 375.9835,69.719527 C 376.11495,69.656456 376.17838,69.656456 376.29956,69.719527 z M 347.73342,96.122834 C 347.50169,96.475747 347.30681,96.420471 347.28838,95.991023 L 347.20405,93.799487 C 347.19342,93.372519 347.42551,93.269763 347.72314,93.57555 L 348.19724,94.049645 C 348.49488,94.347282 348.55015,94.876653 348.31842,95.22992 L 347.73342,96.122834 z M 369.2661,76.877007 C 368.96846,77.211496 368.7261,77.964803 367.4537,77.237716 C 367.4537,77.237716 366.36555,78.141259 365.92051,78.865866 C 365.46484,79.590117 365.10129,79.682598 364.55314,79.321535 C 364.55314,79.321535 363.56031,80.40685 363.10464,81.763582 C 362.64862,83.13059 361.74791,82.582795 361.47649,82.582795 C 361.47649,82.582795 359.74842,84.487322 358.39169,85.480511 C 358.39169,85.480511 358.93984,88.928857 359.30338,89.924527 C 359.30338,89.924527 359.30338,90.917716 358.6631,90.380196 L 360.02763,93.817912 C 360.02763,93.817912 360.29621,94.365708 360.02763,94.905708 C 360.02763,94.905708 361.92436,96.633778 364.55314,97.534841 C 364.55314,97.534841 365.92051,97.534841 366.45803,96.994841 C 367.0083,96.446692 367.54582,95.814566 368.09362,95.991023 C 368.63362,96.178109 368.81822,96.178109 369.18177,95.814566 C 369.53468,95.453857 369.99035,94.905708 370.71495,95.090314 C 371.43921,95.266771 372.08196,95.266771 372.44303,94.821377 C 372.80657,94.365708 373.89436,93.54933 374.52401,94.457834 C 375.15614,95.361377 375.54873,95.119015 375.54873,95.119015 C 375.54873,95.119015 383.53039,93.688936 385.04515,93.435944 C 385.59295,93.343818 386.01992,93.417519 386.49401,93.707361 C 387.01558,94.03122 395.29523,98.677912 396.38303,99.310393 C 397.47082,99.942519 397.28409,101.39138 396.65161,101.93917 C 396.01948,102.47917 392.8872,105.16358 392.8872,105.16358 C 392.8872,105.16358 392.16295,105.80634 391.25161,105.71138 C 390.35054,105.61925 378.80999,106.54937 374.55307,106.91291 C 373.10421,107.03126 371.37614,107.46071 370.20366,107.91638 C 369.02373,108.36142 347.42551,118.74047 345.70771,119.3726 C 343.98779,120.00508 344.16425,120.55287 341.09007,119.73614 C 338.00279,118.91693 331.5724,116.83594 330.12354,116.01921 C 328.6722,115.21063 329.12007,113.39823 330.75566,112.85043 C 332.39161,112.30228 337.10173,110.67449 337.10173,110.67449 C 337.10173,110.67449 334.86271,108.56445 333.59031,107.9348 C 332.3257,107.30268 331.90688,106.83638 333.77456,106.39098 C 337.0096,105.61925 342.88122,103.23283 347.11972,102.18968 C 347.11972,102.18968 344.36976,100.42441 343.89531,99.531495 C 343.89531,99.531495 343.26318,99.810708 343.0761,100.32201 C 342.78909,101.13059 342.44645,100.98319 342.35185,100.16362 C 342.25972,99.347243 341.99078,97.171298 341.99078,97.171298 C 341.99078,97.171298 340.81086,97.626967 340.81086,96.354566 C 340.81086,95.090314 340.90299,92.097637 340.90299,92.097637 C 340.90299,92.097637 339.9098,94.170826 339.9098,96.810235 C 339.9098,97.626967 339.88889,98.166967 339.23019,97.935235 C 338.22637,97.571692 337.54677,97.171298 337.54677,97.171298 C 337.54677,97.171298 337.49149,98.306574 336.64606,97.979881 C 335.39208,97.487361 333.02126,96.718109 332.47346,96.718109 C 332.47346,96.718109 332.03622,97.887755 331.43279,97.795629 C 330.53173,97.656023 325.95094,97.171298 325.95094,97.171298 C 325.95094,97.171298 325.50307,97.442715 325.22633,97.990511 C 324.95527,98.52803 324.9287,98.770393 324.29657,98.49118 C 323.65381,98.222243 320.9694,96.810235 320.9694,96.810235 C 320.9694,96.810235 317.70815,99.531495 316.79681,100.43504 C 315.8961,101.3439 315.70901,100.98319 315.70901,100.16362 C 315.70901,99.347243 315.70901,97.898385 315.70901,97.898385 C 315.70901,97.898385 312.83752,100.75925 311.72315,102.24744 C 310.91456,103.33275 310.99889,102.51602 310.91456,101.43886 C 310.82244,100.34043 310.53259,99.747637 310.62472,99.291967 C 310.62472,99.291967 311.26748,98.52803 311.90775,97.990511 C 312.53988,97.442715 317.34496,91.92118 317.80063,91.465511 C 318.24566,91.012322 318.60921,90.833385 318.97027,90.648779 C 319.33381,90.472322 334.64905,83.399527 334.64905,83.399527 L 333.47692,79.86933 C 333.47692,79.86933 331.66452,80.954645 331.11673,81.226062 C 330.57921,81.494645 330.10511,81.903188 329.8337,81.271062 C 329.56511,80.641417 328.58007,78.502322 328.58007,78.502322 C 328.58007,78.502322 326.86228,79.321535 326.40661,79.682598 C 325.95094,80.046141 325.56118,80.248818 325.19763,79.711299 C 324.83409,79.163503 323.775,76.60559 323.775,76.60559 C 323.775,76.60559 323.05074,77.14559 322.51322,77.332677 C 321.96259,77.509133 321.68622,77.843621 321.5094,77.395747 C 321.32267,76.940078 320.42161,74.245393 320.42161,74.245393 C 320.42161,74.245393 319.69736,74.516811 319.157,74.796023 C 318.60921,75.064606 318.42212,75.370039 318.06141,74.822244 C 317.69787,74.284724 316.62035,71.252716 316.62035,71.252716 C 316.62035,71.252716 314.99504,72.219685 314.99504,71.318622 C 314.99504,70.407283 315.26362,67.546417 315.26362,67.546417 C 315.26362,67.546417 313.62803,67.973031 313.172,68.252244 C 312.72696,68.521181 312.44775,68.083937 312.44775,67.546417 C 312.44775,66.998622 312.632,64.274527 312.632,64.274527 C 312.632,64.274527 309.61311,64.403858 308.852,64.804252 C 307.31881,65.623464 308.00622,64.730551 308.82295,63.829488 C 309.64216,62.918149 309.91074,62.101417 310.19031,61.013622 C 310.19031,61.013622 305.65381,62.285669 303.20929,61.469291 C 300.75696,60.650079 302.34543,60.547323 303.3411,60.547323 C 304.34456,60.547323 306.20196,59.925472 306.91842,58.66122 C 306.91842,58.66122 304.09193,59.322401 297.67996,57.575905 C 296.68712,57.304488 295.64645,56.39563 297.45885,56.664213 C 299.27126,56.93315 302.75362,56.664213 303.57283,56.032087 C 303.57283,56.032087 298.12783,55.705394 292.97019,53.13189 C 292.24559,52.770827 291.24992,51.701457 292.69878,52.157126 C 294.15011,52.612795 295.86756,52.955433 298.67598,52.862953 C 298.67598,52.862953 297.85641,51.683032 294.59551,51.050551 C 294.59551,51.050551 293.60232,50.866299 292.78311,50.326299 C 291.96637,49.778504 289.43752,48.058229 288.88972,47.602559 C 288.34937,47.157166 287.83063,46.282677 289.00027,46.830473 C 290.18019,47.370827 292.97019,48.513898 295.50685,48.690354 C 295.50685,48.690354 293.78657,46.970433 291.96637,46.517244 C 291.96637,46.517244 291.33425,46.153701 290.33822,45.252638 C 289.34539,44.341299 286.6213,41.441103 285.89704,40.54004 C 285.17279,39.628701 284.94071,38.690788 285.93389,39.51 C 286.92956,40.316103 289.79043,41.535709 291.06531,42.621024 C 291.06531,42.621024 289.25291,40.178977 288.52618,39.452244 C 287.80157,38.727638 287.16945,37.910906 286.90086,37.27878 C 286.6213,36.636024 285.62846,34.286457 285.17279,33.198308 C 284.7274,32.110512 284.77204,31.209449 285.49665,32.110512 C 286.22374,33.021851 291.77929,39.098977 295.96252,40.355788 C 295.23543,39.815788 291.78992,34.918583 291.24992,34.193977 C 290.70177,33.469725 290.33822,32.837599 290.15397,32.110512 C 289.97752,31.385906 289.43752,28.48819 289.1583,27.308268 C 288.88972,26.127993 289.27948,25.577363 289.81948,26.665512 C 290.357,27.753308 293.50736,32.38193 293.8709,33.198308 C 294.23196,34.01752 294.87472,34.55504 295.59897,35.187166 C 296.32358,35.829922 298.86023,37.639843 299.40023,38.087717 C 298.31244,36.730985 296.04437,31.841575 295.59897,31.117323 C 295.1433,30.392717 295.05118,28.933583 294.87472,28.301457 C 294.68763,27.668977 294.23196,24.863741 294.23196,23.859922 C 294.23196,22.864253 294.46618,22.131851 294.82724,23.217166 C 295.19078,24.304961 297.58783,29.025709 298.0435,30.029528 C 298.49917,31.025197 299.58448,31.841575 300.21696,32.38193 C 300.84909,32.929725 306.83409,37.81878 306.83409,37.81878 C 306.83409,37.81878 301.76043,30.113505 301.48122,29.481379 C 301.21263,28.849253 300.58051,27.668977 300.58051,26.757638 C 300.58051,25.856576 300.48803,21.602481 300.48803,21.602481 C 300.48803,21.299528 300.51177,21.038741 300.55677,20.838544 L 301.09145,20.838544 C 301.26791,21.749883 303.38574,27.036851 304.92956,28.48819 C 306.47338,29.937048 311.81563,35.279292 312.632,36.006378 C 313.44094,36.730985 314.35228,36.999567 315.26362,37.363111 C 316.16468,37.724174 326.67519,41.896772 327.58689,42.260315 C 328.48759,42.621024 330.02858,43.801299 330.4846,44.704843 C 330.94027,45.613701 339.18271,58.205197 339.18271,58.205197 C 339.18271,58.205197 341.09007,61.653543 342.71539,62.825669 C 344.35133,64.005945 348.15259,67.35933 348.70039,67.630748 C 349.23791,67.89933 349.50897,67.267204 348.96897,66.811535 C 348.42897,66.366141 347.33303,65.094094 346.88799,64.730551 C 346.43232,64.367008 346.6194,63.281693 347.24905,63.642401 C 347.88118,64.005945 348.70039,63.913819 348.70039,63.913819 C 348.70039,63.913819 349.88066,63.281693 348.33685,63.105236 C 346.79586,62.918149 345.80019,62.741693 345.15992,62.825669 C 344.52779,62.918149 344.71204,61.737874 346.24523,60.836811 C 346.24523,60.836811 345.61559,60.744685 344.8885,60.836811 C 344.16425,60.929291 342.35185,60.473622 344.807,59.925472 C 347.24905,59.385472 350.41783,58.66122 351.68244,58.300157 C 351.68244,58.300157 353.04944,58.02874 354.13759,58.300157 C 355.22291,58.56874 362.01649,59.749016 362.01649,59.749016 L 354.76688,57.388819 C 354.76688,57.388819 348.41055,57.675827 347.7809,57.583701 C 347.13814,57.49937 347.42551,57.119882 348.60826,56.848819 C 349.78818,56.579882 353.31803,55.85563 353.31803,55.85563 C 353.31803,55.85563 354.76688,55.668543 355.49397,56.032087 C 356.21858,56.39563 361.65578,58.476614 362.38003,58.837677 C 363.10464,59.20122 363.82889,58.932283 362.7411,58.300157 C 361.65578,57.668031 356.48716,55.576417 356.48716,55.576417 C 356.48716,55.576417 354.86185,55.215354 353.95051,55.131024 C 353.04944,55.036417 350.05712,54.340866 349.61173,54.24874 C 349.15606,54.164409 349.23791,53.764016 350.24137,53.764016 C 351.23704,53.764016 354.76688,53.679685 354.76688,53.679685 C 354.76688,53.679685 356.12362,53.495433 357.21177,54.127559 C 358.29956,54.76748 362.92783,56.848819 362.92783,56.848819 C 362.92783,56.848819 363.65244,57.119882 364.55314,57.119882 C 365.46484,57.119882 366.00484,56.943425 366.00484,56.943425 C 366.00484,56.943425 366.63448,56.664213 365.54917,56.219173 L 360.56763,53.679685 C 360.56763,53.679685 358.75523,52.862953 357.3985,52.499409 C 356.03149,52.138701 353.70814,51.469724 352.79929,51.200787 C 351.89574,50.92937 351.96165,50.594882 353.31803,50.594882 C 354.67476,50.594882 357.21177,50.687362 357.21177,50.687362 C 357.21177,50.687362 358.57877,50.771339 359.57196,51.414095 C 360.56763,52.046575 365.18562,54.311811 366.09696,54.851811 C 367.0083,55.399961 367.63795,54.583228 366.63448,53.856142 C 365.64129,53.13189 356.61614,48.922087 355.81003,48.384921 C 354.99082,47.834291 356.21858,47.966103 357.21177,47.966103 C 358.21523,47.966103 358.93984,48.150354 359.66692,48.150354 C 360.39118,48.150354 361.56082,48.421772 362.20358,48.959291 C 362.8357,49.507087 365.82555,51.590906 365.82555,51.590906 C 365.82555,51.590906 366.45803,51.951614 367.27724,52.046575 C 368.09362,52.138701 368.54149,51.951614 368.54149,51.951614 C 368.54149,51.951614 369.62681,51.870118 368.44688,51.227362 C 367.27724,50.594882 362.41688,46.440709 358.0572,45.465945 C 357.24862,45.289488 356.76637,44.796969 358.57877,44.889095 C 360.39118,44.973425 362.47216,45.334488 362.47216,45.334488 C 362.47216,45.334488 363.92102,45.790158 364.64562,46.60937 C 365.37271,47.426103 368.81822,50.139213 369.35822,50.502756 C 369.90602,50.866299 370.26956,50.234173 369.72177,49.507087 C 369.18177,48.78248 364.5822,43.561418 360.59385,41.851772 C 359.96173,41.580709 359.57196,40.903583 361.11543,41.348622 C 362.64862,41.804646 364.74023,42.436772 364.74023,42.436772 C 364.74023,42.436772 366.45803,43.348111 367.4537,44.528386 C 368.44688,45.698032 370.44602,48.877441 370.71495,49.414961 C 370.99417,49.962756 371.89488,49.87063 371.43921,49.053898 C 370.99417,48.245315 366.92397,40.521615 362.57492,37.621418 C 362.02712,37.260355 361.56082,36.459567 363.28889,37.363111 C 365.00917,38.271969 368.00149,40.447914 368.00149,40.447914 C 368.00149,40.447914 368.90255,40.985079 369.2661,41.804646 C 369.62681,42.621024 370.99417,45.977244 371.17062,46.877953 C 371.35771,47.789646 371.987,47.602559 371.71842,46.517244 C 371.43921,45.429095 370.44602,42.528898 370.26956,41.804646 C 370.08247,41.08004 369.35822,40.260827 368.54149,39.359764 C 367.73291,38.448426 365.41736,34.315158 364.96169,33.683032 C 364.51629,33.050906 364.46917,32.286969 365.46484,33.469725 C 366.45803,34.65 369.45035,37.724174 370.08247,38.36693 C 370.71495,38.999055 371.26275,39.899764 371.43921,40.716496 C 371.62629,41.535709 372.52736,46.877953 372.61948,47.602559 C 372.71409,48.326811 373.07515,48.421772 373.07515,47.241496 C 373.07515,46.06937 372.44303,41.804646 372.25842,40.62437 C 372.08196,39.452244 371.35771,38.179843 370.90169,37.363111 C 370.44602,36.554528 367.58267,31.164804 367.22196,30.532678 C 366.85842,29.900197 367.36157,30.113505 368.09362,30.838111 C 368.81822,31.562363 371.53417,35.187166 372.16381,35.911772 C 372.80657,36.636024 373.25161,38.003386 373.34373,39.452244 C 373.43869,40.903583 373.7994,47.697166 373.7994,48.513898 C 373.7994,49.33063 374.43188,49.602047 374.43188,48.150354 C 374.43188,46.701496 374.3394,40.447914 374.25543,39.175512 C 374.16295,37.910906 373.7994,36.459567 373.15948,35.279292 C 372.52736,34.099371 369.68492,28.272402 369.05279,26.91567 C 368.42031,25.558938 369.53468,26.581182 370.08247,27.308268 C 370.63062,28.03252 374.07082,33.014056 374.43188,33.469725 C 374.79543,33.922914 375.2511,34.826457 375.2511,35.550709 C 375.2511,36.275315 375.42755,45.334488 375.51968,46.245827 C 375.61181,47.157166 376.43102,47.602559 376.33641,46.337953 C 376.24429,45.065551 375.78826,36.098859 375.78826,35.010709 C 375.78826,33.922914 375.2511,32.837599 374.88755,32.018386 C 374.52401,31.201654 372.4246,25.606418 372.15566,24.518623 C 371.87645,23.433308 372.35055,23.588505 373.07515,24.676654 C 373.7994,25.76445 376.15181,29.481379 376.69995,30.392717 C 377.23995,31.29378 377.33208,32.38193 377.42421,33.290434 C 377.51633,34.193977 377.51633,41.804646 377.51633,42.715985 C 377.51633,43.616693 378.14881,44.341299 378.14881,42.621024 C 378.14881,40.903583 378.68881,34.65 378.60448,33.290434 C 378.51236,31.925906 378.14881,30.661654 377.78775,29.389253 C 377.42421,28.124646 376.68932,23.588505 376.32826,22.59567 C 375.96507,21.602481 376.39417,21.415395 376.84736,22.50319 C 377.30303,23.588505 379.14448,27.761103 379.41306,28.58067 C 379.682,29.389253 379.682,30.300591 379.77661,31.385906 C 379.86873,32.474056 379.14448,41.896772 379.14448,42.797481 C 379.14448,43.709173 379.77661,43.709173 379.77661,42.715985 C 379.77661,41.712166 379.96121,39.899764 380.05582,38.727638 C 380.13767,37.547363 380.59334,38.003386 380.78043,38.635512 C 380.95688,39.267638 381.04901,39.992244 381.41255,39.536221 C 381.77362,39.091181 382.67432,37.81878 382.59283,37.091693 C 382.49787,36.367441 383.58566,37.27878 383.58566,37.27878 C 383.58566,37.27878 384.13381,37.363111 384.40523,36.459567 C 384.67381,35.550709 384.76594,35.374252 384.9424,34.55504 C 385.12948,33.738308 384.58169,32.929725 384.13381,33.830434 C 383.67814,34.742126 382.59283,36.636024 382.0422,37.091693 C 381.50468,37.547363 380.95688,38.635512 381.22547,36.459567 C 381.50468,34.286457 381.04901,24.947717 380.59334,22.958859 C 380.13767,20.959725 380.81728,21.602481 381.17019,22.54819 C 381.63366,23.812442 383.76247,30.300591 383.94921,31.025197 C 384.13381,31.749449 384.13381,31.749449 384.85806,31.29378 C 385.57452,30.838111 392.47121,26.489056 393.4644,25.672324 C 394.46007,24.863741 394.5522,25.76445 393.92007,26.489056 C 393.2798,27.213308 385.39806,36.459567 383.49354,39.815788 C 381.58901,43.161024 378.87306,52.138701 378.51236,53.318976 C 378.14881,54.488268 378.32527,55.036417 376.87641,55.492087 C 375.42755,55.939961 368.7261,58.56874 368.7261,58.56874 C 368.7261,58.56874 367.73291,58.837677 367.4537,59.293346 C 367.18476,59.749016 366.00484,61.469291 366.00484,61.469291 C 366.00484,61.469291 365.64129,62.193543 366.45803,62.285669 C 367.27724,62.378149 372.25842,63.550275 373.34373,64.274527 C 374.43188,64.999134 377.33208,67.267204 378.41988,67.630748 C 378.96803,67.815 379.41306,68.811023 379.32873,69.719527 C 379.32873,69.719527 380.41688,70.892007 381.14114,71.803346 C 381.86574,72.704409 382.07125,73.252204 382.24771,73.88433 C 382.4348,74.516811 382.47165,75.296338 381.95007,75.881338 C 380.89098,77.079684 379.32873,77.414527 379.32873,77.414527 C 379.32873,77.414527 379.60795,75.667677 379.05236,74.877519 C 378.53858,74.145118 377.95393,74.068937 377.55602,74.284724 C 377.01602,74.572086 377.0635,74.97248 377.33208,75.425314 C 377.60066,75.881338 378.14881,76.782047 378.14881,76.782047 C 378.14881,76.782047 378.53858,77.358897 378.24342,77.777716 C 378.11196,77.954527 377.90893,78.112558 377.83275,78.159684 C 377.45326,78.410196 376.27299,78.483897 375.55653,78.028228 C 374.99031,77.667165 374.69267,77.266771 374.45031,76.940078 C 374.21822,76.60559 373.54925,76.921653 373.54925,76.921653 C 372.04511,77.14559 370.5385,76.950708 369.89822,76.700551 C 369.89822,76.700551 369.58216,76.531889 369.2661,76.877007 z M 337.25976,112.32886 C 337.25976,112.32886 340.99511,114.29929 341.73814,114.70748 C 342.49145,115.1185 342.82594,114.56787 342.22287,114.03035 C 341.60881,113.48256 337.87346,111.17764 337.87346,111.17764 L 336.91748,111.79134 C 336.50645,111.98622 337.25976,112.32886 337.25976,112.32886 z M 341.73814,117.49712 C 341.4033,117.97122 340.99511,117.56055 340.99511,117.56055 C 340.99511,117.56055 336.44303,115.86118 335.42114,115.32118 C 334.40704,114.77338 335.01011,114.64441 335.76342,114.84709 C 336.50645,115.0526 338.06834,115.18157 339.23019,115.38709 C 340.38141,115.59012 339.84389,114.91299 339.35917,114.56787 C 338.88507,114.23338 336.98055,113.55626 336.17196,113.27705 C 335.35523,113.00846 334.20153,113.41665 332.97661,113.62216 C 331.74885,113.8252 331.88846,114.64441 332.7711,115.18157 C 333.65338,115.72972 338.55059,117.70016 339.35917,117.97122 C 340.17838,118.24016 341.53511,118.50874 342.76287,118.58244 C 343.98779,118.64834 343.70858,117.97122 343.78476,117.35752 C 343.84818,116.74382 343.84818,115.32118 343.84818,115.32118 C 343.84818,115.32118 342.08326,117.02303 341.73814,117.49712 z M 377.96421,72.844015 C 377.96421,72.844015 378.89432,72.899291 379.66358,73.726299 C 380.2507,74.348149 380.41688,75.630826 380.41688,75.630826 C 380.95688,75.222637 381.37287,74.637992 381.09649,73.92933 C 380.3694,72.145984 377.8983,69.990945 377.8983,69.990945 L 377.96421,72.844015 z M 376.33641,77.127165 C 376.72901,77.414527 377.22153,77.332677 377.01602,76.847952 C 376.81051,76.373858 376.21771,75.296338 376.21771,75.296338 C 376.21771,75.296338 376.0122,75.090826 375.73299,75.090826 C 375.4644,75.090826 374.6374,75.083031 374.6374,75.083031 C 374.6374,75.083031 375.58558,76.57937 376.33641,77.127165 z M 376.13338,72.77811 C 376.13338,72.77811 376.06747,72.22996 375.17456,72.432992 C 374.29228,72.638503 373.54925,73.046692 373.54925,73.046692 C 373.54925,73.046692 373.07515,73.31811 373.34373,73.792204 C 373.61515,74.274448 374.02334,74.403425 374.22885,73.995236 C 374.43188,73.586692 375.11149,73.178503 375.2511,73.457716 C 375.38007,73.726299 376.06747,74.200393 376.26271,73.865905 C 376.47602,73.520787 376.33641,73.046692 376.13338,72.77811 z M 374.32913,68.866299 C 374.32913,68.866299 374.1261,68.829448 373.93901,69.51685 C 373.70728,70.333582 374.21043,71.542559 375.49062,71.568779 C 376.50507,71.597834 376.98696,70.862952 377.0635,70.278307 C 377.1372,69.711732 376.92389,69.042756 376.53129,69.127086 C 375.83574,69.256063 374.32913,68.866299 374.32913,68.866299 z M 371.37614,64.822677 C 371.37614,64.822677 370.90169,64.414134 370.69653,64.759252 C 370.49102,65.094094 370.22208,66.25559 371.31023,66.590078 C 372.39803,66.932716 373.34373,67.201299 373.34373,67.201299 C 373.34373,67.201299 374.36846,67.267204 373.48334,66.590078 C 372.90932,66.152834 371.78432,65.167795 371.37614,64.822677 z M 363.69992,66.384567 C 363.08586,66.115984 362.53807,66.20811 362.94625,66.653504 C 363.82889,67.612323 363.69992,68.223543 363.69992,68.223543 C 363.69992,68.223543 363.69992,68.623937 364.64562,68.623937 C 365.59381,68.623937 366.68161,68.558031 367.56425,68.558031 C 368.44688,68.558031 368.44688,68.223543 367.70385,67.946811 C 366.96118,67.675393 363.69992,66.384567 363.69992,66.384567 z M 366.50515,70.465039 C 365.87303,70.259882 365.33551,70.417913 365.7887,70.818307 C 366.47645,71.410748 366.70039,72.28559 366.70039,72.28559 C 366.70039,72.28559 366.73724,72.693779 367.68543,72.591023 C 368.63362,72.498897 369.71114,72.314291 370.58562,72.219685 C 371.46826,72.127559 371.43141,71.792716 370.65968,71.597834 C 369.88759,71.402952 366.50515,70.465039 366.50515,70.465039 z M 362.0087,62.94685 C 361.42121,62.630787 360.86527,62.694212 361.24476,63.168307 C 361.92436,64.005945 361.88751,64.777677 361.88751,64.777677 C 361.88751,64.777677 361.85846,65.17559 362.8148,65.241496 C 363.76299,65.307401 364.85114,65.307401 365.73342,65.362677 C 366.61606,65.428582 366.63448,65.083464 365.90988,64.767401 C 365.17747,64.443189 362.0087,62.94685 362.0087,62.94685 z M 356.10519,67.954606 C 355.50212,67.667598 354.98303,67.730669 355.35436,68.205118 C 355.94716,68.969055 356.06055,69.785433 356.06055,69.785433 C 356.06055,69.785433 356.04992,70.193976 356.9981,70.222677 C 357.94665,70.249252 359.03444,70.212401 359.91708,70.230826 C 360.80751,70.259882 360.80751,69.914763 360.07511,69.627401 C 359.33208,69.329763 356.10519,67.954606 356.10519,67.954606 z M 359.21905,71.66374 C 358.56814,71.505708 358.06783,71.671535 358.53129,72.071929 C 359.27433,72.704409 359.54574,73.476141 359.54574,73.476141 C 359.54574,73.476141 359.60881,73.874055 360.54921,73.707874 C 361.48712,73.539212 362.54586,73.281259 363.41007,73.123228 C 364.28456,72.965196 364.22929,72.630708 363.43913,72.498897 C 362.65925,72.359291 359.21905,71.66374 359.21905,71.66374 z M 364.23708,73.652598 C 363.71834,73.520787 363.33637,73.634173 363.68929,73.968661 C 364.30299,74.543031 364.49787,75.090826 364.49787,75.090826 C 364.49787,75.090826 364.56377,75.417519 365.30681,75.277913 C 366.06011,75.148937 366.90555,74.932795 367.6011,74.814448 C 368.28885,74.682637 368.24385,74.42185 367.61952,74.311299 C 366.9874,74.200393 364.23708,73.652598 364.23708,73.652598 z M 357.15614,65.447008 C 356.65582,65.17559 356.18952,65.223071 356.50559,65.63126 C 357.03531,66.319015 357.03531,67.006417 357.03531,67.006417 C 357.03531,67.006417 357.00873,67.351535 357.81767,67.406811 C 358.62342,67.472716 359.54574,67.480511 360.29621,67.546417 C 361.04988,67.601693 361.0683,67.314685 360.45425,67.035472 C 359.83275,66.75626 357.15614,65.447008 357.15614,65.447008 z M 352.7596,62.035512 C 352.1381,61.785354 351.58996,61.906535 352.01692,62.333149 C 352.6859,62.99185 352.82551,63.866338 352.82551,63.866338 C 352.82551,63.866338 352.84393,64.274527 353.79247,64.237677 C 354.74846,64.200827 355.82881,64.098071 356.7111,64.06122 C 357.59373,64.02437 357.5831,63.689882 356.82165,63.447519 C 356.06834,63.197362 352.7596,62.035512 352.7596,62.035512 z M 349.94622,64.917283 C 349.41436,64.719921 348.96897,64.822677 349.33251,65.194015 C 350.0387,65.910472 350.05712,66.477047 350.05712,66.477047 C 350.05712,66.477047 350.08334,66.822165 350.89192,66.766535 C 351.70086,66.700984 352.6122,66.579803 353.36551,66.524173 C 354.11633,66.468897 354.09011,66.179409 353.43921,65.994803 C 352.78866,65.807716 349.94622,64.917283 349.94622,64.917283 z M 349.51712,82.925078 C 348.90307,83.185865 348.61606,83.818346 349.2007,83.660314 C 350.98688,83.17807 350.84728,84.189684 350.84728,84.189684 C 350.84728,84.189684 351.14492,84.476692 351.80362,83.781495 C 352.45417,83.093739 353.1522,82.256102 353.76342,81.615826 C 354.36933,80.975905 354.12696,80.741338 353.41051,81.094251 C 352.70433,81.447519 349.51712,82.925078 349.51712,82.925078 z M 361.03145,76.62685 C 360.37275,76.737401 359.98299,77.127165 360.56763,77.266771 C 361.65578,77.527558 362.06397,78.141259 362.06397,78.141259 C 362.06397,78.141259 362.36161,78.001653 363.14929,77.461653 C 363.93944,76.932283 363.51283,77.14559 364.23708,76.645275 C 364.97232,76.152401 364.74023,75.770433 363.9685,75.965669 C 363.19677,76.160551 361.03145,76.62685 361.03145,76.62685 z M 357.17492,80.722913 C 356.55307,80.975905 356.237,81.420944 356.84007,81.447519 C 357.96507,81.494645 358.48665,82.005944 358.48665,82.005944 C 358.48665,82.005944 358.7446,81.811062 359.41393,81.131456 C 360.07511,80.45433 359.70377,80.751968 360.31747,80.119842 C 360.93897,79.487362 360.63106,79.163503 359.91708,79.505787 C 359.20062,79.850905 357.17492,80.722913 357.17492,80.722913 z M 357.03531,75.483425 C 356.50559,75.509645 356.14488,75.770433 356.59771,75.947244 C 357.3698,76.244881 357.70429,76.792677 357.70429,76.792677 C 357.70429,76.792677 357.85452,77.079684 358.53129,76.737401 C 359.2109,76.392283 359.62724,76.160551 360.25936,75.836338 C 360.89184,75.520275 360.77066,75.277913 360.13818,75.351614 C 359.50854,75.425314 357.03531,75.483425 357.03531,75.483425 z M 355.06488,74.134842 C 354.86185,75.083031 355.53897,74.543031 355.53897,74.543031 C 355.53897,74.543031 356.15267,73.92933 356.69267,73.252204 C 357.24047,72.572598 356.76637,72.295866 356.56086,71.961378 C 356.35818,71.616259 356.21858,71.410748 356.07897,71.755866 C 356.07897,71.755866 355.27003,73.178503 355.06488,74.134842 z M 368.14889,76.07622 L 368.41003,75.788858 C 368.69952,75.472795 368.58649,75.296338 368.16767,75.380669 L 367.43527,75.5387 C 367.02673,75.623031 366.89527,75.910039 367.16385,76.170826 C 367.42464,76.429133 367.87251,76.392283 368.14889,76.07622 z M 362.7411,79.774724 C 362.86228,79.36618 362.50121,79.33996 362.19295,79.637598 L 360.92055,80.873149 C 360.61263,81.160157 360.70724,81.447519 361.13421,81.505275 L 361.23661,81.513425 C 361.65578,81.5687 362.09019,81.281338 362.21137,80.873149 L 362.7411,79.774724 z M 353.14157,100.33228 L 356.21858,98.361849 L 355.13043,96.994841 C 355.13043,96.994841 354.24814,97.645393 354.04263,98.056416 C 353.83996,98.464605 353.50511,98.52803 353.2259,97.850904 C 352.95732,97.171298 351.18956,93.362243 351.18956,93.362243 L 350.57586,93.910038 C 350.57586,93.910038 350.0387,93.910038 350.0387,93.435944 C 350.0387,92.961849 349.83318,92.211023 349.83318,92.211023 L 349.28503,92.005511 L 349.54582,97.674448 L 353.14157,100.33228 z M 352.60157,90.76996 C 352.38826,90.406416 352.25929,90.443267 352.32519,90.862086 L 352.77803,94.03122 C 352.83614,94.450038 353.12314,94.542164 353.42078,94.236731 L 353.65287,93.994369 C 353.93988,93.688936 354.00578,93.138306 353.78185,92.766968 L 352.60157,90.76996 z M 355.17791,91.660393 C 354.81436,91.43929 354.63011,91.586692 354.76688,91.987086 L 355.36251,93.725786 C 355.49397,94.123345 355.76291,94.141771 355.93936,93.762637 L 356.22637,93.175157 C 356.40283,92.795668 356.26322,92.303149 355.90251,92.089842 L 355.17791,91.660393 z M 356.40283,87.432519 C 356.82165,87.442794 357.13771,87.108306 357.10086,86.689487 L 357.03531,85.983661 C 356.9981,85.556692 356.65582,85.36996 356.28165,85.564842 L 353.36551,87.098031 C 352.99417,87.292913 352.73338,87.796062 352.79929,88.214881 L 352.84393,88.530944 C 352.90984,88.947283 353.18905,89.031259 353.47641,88.725826 L 354.20066,87.954094 C 354.49051,87.638031 355.06488,87.395668 355.49397,87.405944 L 356.40283,87.432519 z M 355.60488,88.270157 L 355.98685,89.961377 C 356.07897,90.380196 356.32133,90.751535 356.52401,90.788385 C 356.72952,90.825235 356.88755,90.509172 356.87692,90.082558 L 356.8507,89.105314 C 356.84007,88.688976 356.59771,88.325432 356.32133,88.307007 C 356.04212,88.288582 355.81003,88.270157 355.81003,88.270157 M 345.32574,97.924605 C 345.30732,98.351574 345.5022,98.733542 345.77362,98.770393 C 346.03192,98.799093 346.22681,98.49118 346.20059,98.064212 L 346.14496,97.023897 C 346.12653,96.596928 345.95822,95.991023 345.77362,95.67496 C 345.57625,95.361377 345.41822,95.443227 345.3998,95.862046 L 345.32574,97.924605 z M 346.31114,88.288582 L 347.84433,86.829094 C 348.15259,86.542086 348.34748,86.086417 348.26314,85.825629 C 348.18944,85.564842 347.84433,85.546417 347.50169,85.788779 L 345.70771,87.01618 C 345.3548,87.256062 345.22299,87.759212 345.41007,88.13055 C 345.59716,88.512519 346.00535,88.57559 346.31114,88.288582 z M 346.85893,90.008857 C 346.6272,90.361771 346.59035,90.954566 346.77744,91.336535 L 346.90641,91.586692 C 347.09066,91.96866 347.41736,92.292519 347.62287,92.310944 C 347.8259,92.329369 348.01263,92.005511 348.03141,91.578897 L 348.16039,88.770472 C 348.17881,88.343857 348.00236,88.288582 347.77062,88.641495 L 346.85893,90.008857 z M 356.00527,83.17807 C 356.20015,82.803897 356.06055,82.674921 355.697,82.906653 L 354.07948,83.921102 C 353.72657,84.142204 353.67129,84.579448 353.96114,84.887716 L 354.19287,85.127598 C 354.47988,85.435511 354.88027,85.380235 355.07515,84.998267 L 356.00527,83.17807 z M 349.54582,89.505708 C 349.667,89.906101 350.00964,89.998227 350.31791,89.71122 L 350.63397,89.413227 C 350.9394,89.123739 351.16334,88.678346 351.12649,88.435983 C 351.08716,88.196456 350.71547,88.075275 350.29948,88.167401 L 349.97279,88.241102 C 349.55397,88.336062 349.31409,88.733621 349.43279,89.142165 L 349.54582,89.505708 z M 353.42893,60.80811 C 354.65633,60.947716 361.18133,62.175118 362.40625,62.304094 C 363.62338,62.443701 363.08586,61.495512 363.08586,61.495512 C 363.08586,61.495512 363.4207,61.087323 362.7411,60.881811 C 362.06397,60.678779 358.1231,59.925472 356.83228,59.796496 C 355.53897,59.65689 354.10854,59.517283 354.10854,59.517283 L 350.37318,60.204685 C 350.37318,60.204685 352.21181,60.678779 353.42893,60.80811 z M 317.88496,97.237204 L 324.68633,91.939605 C 325.02118,91.681653 324.9737,91.586692 324.57578,91.744723 L 318.73818,94.041849 C 318.34842,94.189251 318.00614,94.663345 317.98488,95.090314 L 317.88496,97.034172 L 317.88496,97.237204 z M 323.06102,94.802952 C 322.75275,95.10059 322.81866,95.498503 323.19035,95.704015 L 323.73035,95.991023 C 324.10169,96.196534 324.65763,96.112204 324.96555,95.825196 L 329.8337,91.112598 C 330.14196,90.825235 330.06826,90.704054 329.66787,90.85429 L 326.21952,92.145117 C 325.81913,92.292519 325.25291,92.656062 324.94712,92.9537 L 323.06102,94.802952 z M 327.60531,95.406377 L 329.96551,95.461653 C 330.38433,95.461653 330.9587,95.211495 331.23791,94.895432 C 331.23791,94.895432 335.14972,90.380196 336.50645,89.495078 C 336.50645,89.495078 331.41437,90.85429 327.60531,95.406377 z M 335.89523,95.406377 C 336.44303,93.707361 339.63838,88.409763 339.63838,88.409763 C 335.76342,90.991416 333.65338,94.413188 333.65338,94.413188 C 333.43228,94.774251 333.59031,95.108739 334.00629,95.164015 L 335.89523,95.406377 z M 338.96161,95.611889 C 339.02468,94.178621 340.85551,89.15244 340.85551,89.15244 C 338.6824,91.465511 337.6311,95.053464 337.6311,95.053464 C 337.52834,95.461653 338.01307,95.509133 338.43188,95.556613 L 338.96161,95.611889 z M 329.69409,89.023464 C 330.11291,88.984133 330.59763,88.630865 330.76381,88.241102 L 331.24854,87.079606 C 331.41437,86.689487 331.23791,86.523661 330.85594,86.700117 L 325.92189,89.086889 C 325.54275,89.273621 325.56897,89.394802 325.99559,89.357952 L 329.69409,89.023464 z M 333.5244,88.233306 C 333.22677,88.530944 333.31889,88.67055 333.71929,88.538739 L 339.58311,86.876574 C 339.9835,86.744763 340.37362,86.773818 340.38141,86.347204 L 340.36299,83.939527 C 340.37362,83.520708 340.07562,83.336102 339.69366,83.520708 L 338.282,84.24496 C 337.90251,84.439842 337.35188,84.850865 337.06488,85.156298 L 333.5244,88.233306 z M 342.39933,82.759251 C 342.03578,82.990984 341.74842,83.520708 341.75905,83.939527 L 341.7959,85.259054 C 341.8037,85.677873 342.04606,85.778149 342.34405,85.472361 L 345.41822,82.237676 C 345.71586,81.932243 346.00535,81.336614 346.05035,80.909999 L 346.12653,80.333149 C 346.18216,79.91433 346.46137,79.310905 346.74838,78.994842 L 347.61224,78.038503 C 347.8996,77.72244 348.11539,77.266771 348.09448,77.024409 C 348.07606,76.774251 347.75185,76.726771 347.36208,76.895433 L 346.52444,77.285196 C 346.13468,77.451377 345.79204,77.888621 345.75271,78.241535 C 345.71586,78.605078 345.41822,79.116023 345.09401,79.384606 L 344.30385,80.027362 C 343.97964,80.306929 343.80318,80.778188 343.91374,81.104881 C 344.02464,81.420944 343.82976,81.866338 343.4687,82.090275 L 342.39933,82.759251 z M 351.4135,72.432992 C 350.99468,72.432992 350.53122,72.759685 350.38098,73.160078 L 349.88846,74.498385 C 349.7407,74.895944 349.79633,75.296338 350.00185,75.388464 C 350.20452,75.483425 350.56807,75.277913 350.81822,74.924999 L 351.35822,74.153267 C 351.5981,73.810629 351.97192,73.539212 352.17496,73.557637 C 352.38047,73.576417 352.43574,73.921181 352.30677,74.321574 L 351.49783,76.737401 C 351.36637,77.137795 350.92877,77.564409 350.52059,77.69374 L 349.40622,78.046653 C 349.00582,78.17811 348.70818,78.586653 348.74503,78.957992 C 348.78472,79.32933 348.05763,79.990511 347.7809,80.259448 C 347.50169,80.520236 347.59381,80.854724 347.99421,81.002125 L 348.90307,81.002125 C 349.30346,81.152362 349.89909,81.057401 350.23358,80.788818 L 353.70814,78.009803 C 354.04263,77.749015 354.31405,77.303621 354.31405,77.024409 C 354.31405,76.745196 354.06106,76.745196 353.75562,77.042834 L 353.71877,77.071889 C 353.41051,77.358897 352.96511,77.582834 352.71496,77.564409 C 352.47259,77.545984 352.38826,77.200866 352.52007,76.803307 L 352.98354,75.406889 C 353.12314,75.00933 353.2259,74.329724 353.2259,73.902755 L 353.2259,73.204724 C 353.2259,72.77811 352.88078,72.432992 352.45417,72.432992 L 351.4135,72.432992 z M 304.5398,30.72756 C 304.26059,30.419292 304.17626,30.477048 304.36334,30.856536 L 307.6983,37.761024 C 307.88504,38.142993 308.34106,38.617087 308.7124,38.822599 C 308.7124,38.822599 315.70901,42.594803 321.35137,43.411536 C 321.35137,43.411536 316.46232,39.944764 313.20106,38.727638 C 309.93732,37.502717 309.83704,37.091693 309.83704,37.091693 C 309.74244,36.683504 309.42637,36.088229 309.14964,35.772166 L 304.5398,30.72756 z M 300.65421,37.929331 C 300.78602,38.330079 301.16515,38.877874 301.49185,39.146457 L 303.21992,40.55067 C 303.55441,40.819252 303.87862,40.819252 303.9548,40.558465 C 304.0285,40.297678 304.40799,40.216181 304.80838,40.374213 L 313.70173,44.480906 C 314.18645,44.675788 314.2311,44.146418 313.81476,43.830355 C 313.81476,43.830355 310.47732,41.238071 309.52913,40.558465 C 308.58059,39.881339 307.08425,39.091181 307.08425,39.091181 C 306.70511,38.88567 306.10984,38.532756 305.75657,38.301024 L 299.97708,34.462914 C 299.62417,34.230827 299.44771,34.360158 299.57669,34.768347 L 300.65421,37.929331 z M 320.64271,46.654016 C 321.03531,46.822677 321.00626,46.970433 320.58744,46.999134 L 316.07255,47.304921 C 315.65374,47.333622 315.63531,47.462953 316.0435,47.584134 L 319.73421,48.75626 C 320.1424,48.885236 320.13177,49.080473 319.72358,49.193504 L 317.00232,49.936536 C 316.59129,50.047087 316.44389,50.429055 316.87051,50.484331 L 321.20149,50.789764 C 321.62031,50.845394 321.63874,51.003425 321.23834,51.153307 L 317.56854,51.999095 C 317.16815,52.138701 317.41866,52.649646 317.83748,52.649646 L 327.64996,52.528465 C 328.0794,52.528465 328.10563,52.370433 327.72649,52.183347 L 321.98102,49.396536 C 321.60189,49.211929 321.62811,49.072323 322.05755,49.090748 L 325.81913,49.28563 C 326.23795,49.312205 326.30385,49.117323 325.96937,48.866811 L 320.67177,44.973425 C 322.51322,45.587126 324.4546,45.632126 324.4546,45.632126 C 324.88157,45.650551 324.93685,45.465945 324.59421,45.223583 L 323.34838,44.38878 C 323.00326,44.154213 322.36299,43.977756 321.94417,43.996181 L 315.44007,44.164843 C 315.02126,44.183268 314.7711,44.686418 315.17149,44.844449 L 320.64271,46.654016 z M 301.10208,44.025236 C 301.94752,44.183268 302.51409,44.322874 302.92228,44.193898 L 303.08811,44.135788 C 303.4885,43.996181 304.14968,43.988386 304.55822,44.098937 L 312.86657,47.13874 C 313.60925,47.492008 313.89661,46.830473 313.53555,46.60937 L 305.63539,41.907048 C 305.27185,41.69374 304.72405,41.712166 304.42641,41.952048 C 304.13126,42.19441 303.59126,42.212835 303.22771,41.999528 L 296.18397,37.761024 C 295.82291,37.547363 295.19078,36.499252 294.91157,36.952087 L 301.10208,44.025236 z M 294.27909,43.039843 C 294.43712,43.429961 294.89315,43.89626 295.27511,44.072717 L 302.23452,47.241496 C 302.61649,47.417953 303.28582,47.584134 303.70181,47.613189 L 304.0735,47.63941 C 304.49232,47.668465 305.1613,47.815866 305.56169,47.966103 L 309.35232,49.396536 C 309.74244,49.546417 310.42204,49.683543 310.84086,49.704449 L 313.72015,49.83378 C 314.13897,49.852205 314.17582,49.723228 313.79385,49.546417 L 304.65035,45.297638 C 304.26838,45.121181 303.83362,45.297638 303.67559,45.698032 L 303.62031,45.866339 C 300.34842,44.704843 293.8787,40.885158 293.8787,40.885158 C 293.51799,40.671851 293.34933,40.808622 293.51799,41.201221 L 294.27909,43.039843 z M 296.94791,48.71941 C 297.25334,49.014567 297.83799,49.312205 298.25681,49.369961 L 303.66496,50.168268 C 304.08378,50.223543 304.66098,50.521181 304.93736,50.818819 C 305.21657,51.124606 305.79342,51.395669 306.22039,51.43252 L 312.83752,52.046575 C 313.26448,52.083425 313.28291,51.988465 312.885,51.830433 L 303.99165,48.319016 C 303.59941,48.160984 302.9407,47.947677 302.53252,47.844921 L 294.50303,45.782362 C 294.09484,45.679607 294.01051,45.827008 294.30815,46.124646 L 296.94791,48.71941 z M 317.48456,55.984606 C 312.99555,56.256024 308.3857,54.804685 308.3857,54.804685 C 307.96937,54.749055 307.96937,54.665079 308.39633,54.620079 L 314.53937,54.024803 C 314.95535,53.977323 314.96598,53.895827 314.54716,53.819291 L 305.45893,52.304528 C 305.04011,52.241457 304.47389,51.970039 304.19468,51.701457 C 303.91547,51.440669 303.3411,51.190512 302.91165,51.134882 L 297.85641,50.510551 C 297.4298,50.455276 297.40074,50.576457 297.77492,50.771339 L 300.48803,52.164921 C 300.85972,52.359803 301.51027,52.59437 301.91846,52.694646 L 306.39685,53.70874 C 306.80787,53.800866 306.80787,53.877402 306.37842,53.877402 L 301.32318,53.819291 C 300.49618,53.811496 300.02208,54.090709 300.83067,54.285591 L 308.852,55.874055 C 309.26019,55.976811 309.26799,56.171693 308.87043,56.311299 L 305.7463,56.840669 C 303.94417,57.47315 304.46574,57.49937 306.08078,57.602126 L 313.24606,58.047165 C 313.66488,58.07622 313.67515,58.178976 313.26448,58.281732 L 308.69397,58.679646 C 308.27515,58.782401 307.76385,59.590984 309.34452,59.425157 L 317.95866,58.977283 C 318.37748,58.958858 318.67511,58.903583 318.80409,58.634646 C 318.93342,58.373858 318.70133,58.113071 318.28252,58.047165 L 311.44393,56.988425 C 311.02511,56.925 311.02511,56.840669 311.45208,56.811968 L 317.53984,56.775118 C 317.96645,56.737913 317.94803,56.208543 317.53169,56.142638 M 319.86318,58.634646 C 323.59854,59.043189 328.59035,57.425669 328.59035,57.425669 C 328.98047,57.267638 329.02511,56.988425 328.69063,56.803819 C 328.35614,56.616732 328.39547,56.300669 328.76681,56.116417 L 330.31842,55.31563 C 330.69791,55.120748 330.67133,54.880866 330.25251,54.77811 L 323.99893,53.187165 C 323.59074,53.08689 322.92956,53.105315 322.52102,53.226496 L 319.99216,54.014173 C 321.75992,54.899291 324.74161,54.620079 324.74161,54.620079 C 325.16078,54.554173 325.18948,54.646654 324.80752,54.833386 L 321.75992,56.329724 C 324.07263,56.664213 326.23795,56.208543 326.23795,56.208543 C 326.65677,56.124213 327.392,56.097992 326.99161,56.256024 C 326.99161,56.256024 323.52484,58.439764 319.86318,58.634646 z M 334.38826,57.072756 C 334.38826,57.072756 332.41818,57.119882 331.80413,57.119882 C 331.19043,57.119882 330.73724,57.351968 330.73724,57.351968 C 330.73724,57.351968 327.5394,58.774252 326.65677,59.182795 C 325.77448,59.590984 325.35566,59.943898 322.78181,60.204685 C 319.31539,60.539173 312.11326,60.410197 312.11326,60.410197 C 312.03956,61.495512 311.3596,62.852244 311.3596,62.852244 C 312.38185,62.712638 314.55779,62.509606 315.44007,62.443701 C 316.32271,62.378149 316.52822,62.101417 316.7309,61.895905 C 316.93641,61.701023 318.08763,61.355905 318.08763,61.355905 C 318.08763,61.355905 321.01689,61.292834 325.97716,61.013622 C 330.94027,60.744685 334.67563,57.480945 334.67563,57.480945 C 335.04696,57.193937 334.38826,57.072756 334.38826,57.072756 z M 341.76685,64.777677 C 339.78862,64.627795 337.38874,65.230866 337.38874,65.230866 C 339.4357,64.005945 339.5094,62.936575 339.5094,62.936575 C 339.61216,62.554606 339.09059,62.472756 338.33728,62.378149 C 337.58645,62.285669 333.72992,62.936575 330.45803,64.480039 C 329.92866,64.730551 329.03574,65.296771 327.67901,65.230866 C 326.31165,65.167795 318.29315,64.005945 318.29315,64.005945 C 332.36255,64.06937 337.25976,59.999173 337.25976,59.999173 C 337.25976,59.999173 337.86318,59.367047 333.4507,59.719961 C 332.7711,59.778071 332.09397,60.130984 332.09397,60.130984 C 327.80799,62.99185 325.42937,62.712638 322.30771,62.509606 C 319.17543,62.304094 314.01779,64.005945 314.01779,64.005945 L 314.2233,66.25559 C 316.87051,65.230866 322.43669,65.910472 322.43669,65.910472 C 319.17543,67.061693 316.66783,66.932716 316.66783,66.932716 L 316.87051,69.108661 C 320.81137,69.171732 324.81566,67.472716 324.81566,67.472716 C 323.59854,67.880905 321.62811,67.138228 321.62811,67.138228 C 323.19035,66.590078 326.7861,66.25559 329.16472,65.976378 C 331.54618,65.70496 332.97661,65.028189 334.40704,64.348582 C 335.82933,63.671456 336.71196,64.208976 336.71196,64.208976 C 336.03236,64.822677 334.40704,65.976378 333.59031,66.653504 C 332.7711,67.340905 332.09397,67.406811 332.09397,67.406811 C 332.09397,67.406811 329.64944,67.546417 327.67901,67.406811 C 325.70078,67.267204 325.90346,68.355 325.90346,68.355 C 322.57629,69.51685 317.95866,70.325433 317.95866,70.325433 L 318.97027,72.432992 C 321.42543,72.295866 328.42169,71.002559 328.42169,71.002559 C 323.2559,73.046692 321.5544,73.31811 321.5544,73.31811 L 322.57629,75.288543 C 326.45126,73.865905 331.14578,73.31811 331.14578,73.31811 C 328.56129,74.954055 325.30039,75.899763 325.30039,75.899763 L 326.31165,77.936102 L 334.12748,74.34 C 332.09397,74.814448 329.98393,74.608937 329.98393,74.608937 C 334.20153,73.792204 336.17196,71.961378 336.17196,71.961378 C 332.837,72.572598 327.5394,72.295866 327.5394,72.295866 L 334.26708,70.259882 C 330.32657,70.465039 324.34122,69.645826 324.34122,69.645826 C 328.15311,69.785433 333.03968,68.149842 335.14972,67.267204 C 337.25976,66.384567 338.55059,66.25559 338.55059,66.25559 C 338.00279,68.223543 335.76342,69.914763 335.76342,69.914763 C 340.24429,69.914763 342.35185,65.296771 342.35185,65.296771 C 342.52051,64.888582 341.76685,64.777677 341.76685,64.777677 z M 337.53897,71.847992 C 341.00574,71.373897 343.52397,69.266693 344.47251,68.318149 C 345.41822,67.35933 344.8148,67.498937 343.727,67.564842 C 342.64169,67.638543 341.75905,67.638543 341.34803,68.241968 C 340.93984,68.855669 338.54279,70.733976 337.06488,71.708385 C 336.24814,72.256535 337.53897,71.847992 337.53897,71.847992 z M 341.06102,72.851811 C 340.10468,73.594842 340.44732,73.763149 340.44732,73.763149 C 343.70858,72.946771 345.54968,70.939488 345.54968,70.939488 C 347.52826,70.565315 346.43232,72.024803 345.20456,73.381181 C 344.56464,74.097992 344.11925,74.608937 344.11925,74.608937 C 347.58354,73.568267 348.77409,72.127559 349.40622,71.13437 C 350.19673,69.869763 349.63015,70.193976 348.74503,70.259882 C 347.86275,70.325433 344.807,70.259882 343.84818,70.193976 C 342.89964,70.119921 342.76287,70.873582 342.76287,70.873582 C 342.35185,71.410748 342.00921,72.098504 341.06102,72.851811 z M 330.05763,77.667165 L 330.73724,79.637598 C 330.73724,79.637598 335.01011,77.936102 338.20795,76.105275 C 338.20795,76.105275 337.32566,77.73059 334.88114,79.023897 L 335.28933,80.928425 C 335.28933,80.928425 338.55059,80.185747 341.26653,78.623503 C 341.26653,78.623503 340.31799,80.45433 336.17196,82.01622 L 336.17196,82.972558 C 336.17196,82.972558 339.63838,82.285157 342.89964,79.571692 L 341.94366,79.226574 C 341.94366,79.226574 343.03145,78.75248 345.81862,75.965669 C 345.81862,75.965669 341.53511,78.075708 338.06834,78.417992 C 338.06834,78.417992 341.26653,77.256141 342.96555,75.156732 C 342.96555,75.156732 336.71196,75.836338 335.62381,75.899763 C 335.62381,75.899763 338.06834,75.017125 339.77019,73.726299 C 339.77019,73.726299 337.93937,73.995236 336.23751,73.792204 C 336.23751,73.792204 335.68972,74.748543 334.60192,75.362244 C 333.51377,75.965669 330.05763,77.461653 330.05763,77.461653 M 343.17106,90.137834 C 343.32909,89.468857 342.98397,89.097165 342.32562,89.292046 C 341.95393,89.218346 341.97236,93.49122 342.04606,96.049133 C 342.23066,96.049133 342.50988,96.149054 342.61263,95.964802 C 342.98397,93.983739 342.70476,92.108267 343.17106,90.137834 z M 344.67519,95.119015 C 344.77795,94.64492 344.77015,94.0787 344.30385,93.707361 C 344.2011,93.612401 343.92437,93.707361 343.92437,93.707361 C 343.64515,95.303621 343.64515,96.79996 343.55055,98.3987 C 343.6161,98.751967 344.09055,98.49118 344.10897,98.3987 C 344.30385,97.553267 344.44346,96.244015 344.67519,95.119015 z M 357.36165,100.70398 C 348.67133,102.53445 336.03236,107.65559 336.03236,107.65559 C 336.03236,107.65559 343.29224,112.99004 344.28543,113.5272 C 345.28889,114.07535 345.24141,114.93142 345.24141,115.84275 C 345.24141,116.74382 345.07559,118.19268 345.07559,118.19268 C 345.07559,118.19268 345.07559,118.37976 346.6194,117.46807 C 348.15259,116.56736 356.88755,111.86504 357.92822,110.50866 C 358.83956,109.32838 358.90299,110.50866 358.45759,111.14858 C 358.00192,111.78071 357.54625,112.60027 357.54625,112.60027 C 357.54625,112.60027 365.07472,110.15539 367.72228,107.07874 C 368.26228,106.43846 368.77322,106.62307 368.41003,107.26583 C 368.04897,107.89547 368.03055,107.82142 368.03055,107.82142 C 368.03055,107.82142 372.71409,104.79224 376.84736,104.43933 C 380.222,104.15197 384.46051,103.90181 386.45716,103.0826 C 386.45716,103.0826 387.26574,102.72153 386.9022,103.44614 C 386.54929,104.17039 386.36503,104.17039 386.36503,104.17039 C 386.36503,104.17039 390.78779,104.10449 393.99377,102.32114 C 394.81299,101.86547 395.45326,100.49031 394.82078,99.858188 C 394.18086,99.217912 386.08582,94.571219 386.08582,94.571219 C 386.08582,94.571219 386.03055,94.402558 384.86869,94.571219 C 382.13681,94.942558 376.42074,96.178109 376.42074,96.178109 C 376.42074,96.178109 376.51287,97.171298 376.33641,97.626967 C 376.15181,98.082637 375.61181,99.347243 374.3394,99.078306 L 373.53082,98.714763 C 373.53082,98.714763 373.53082,99.439369 372.80657,99.802912 L 370.90169,98.622637 L 366.18909,99.078306 C 366.18909,99.078306 366.00484,100.7961 365.92051,101.52035 C 365.82555,102.24744 365.54917,103.24063 364.37669,102.79524 C 363.19677,102.33957 363.46535,102.43205 363.46535,102.43205 C 363.46535,102.43205 363.10464,104.51303 362.28507,103.78842 C 361.47649,103.06417 361.38436,102.97205 361.38436,102.97205 C 361.38436,102.97205 360.65976,104.51303 360.11196,103.6963 C 359.57196,102.87709 357.36165,100.70398 357.36165,100.70398 z M 360.43582,99.615826 C 360.83621,100.16362 361.71885,101.45728 362.06397,101.93138 C 362.40625,102.40547 362.80665,102.6085 362.94625,101.72586 C 363.08586,100.84358 363.04901,100.57464 362.40625,100.22953 C 361.38436,99.689526 360.43582,99.615826 360.43582,99.615826 z M 358.95011,100.27701 C 359.35866,100.27701 359.88803,101.86547 360.23314,102.33957 C 360.56763,102.81401 360.77066,102.6085 360.77066,102.13405 C 360.77066,101.65996 360.50173,100.90913 360.02763,100.22953 C 359.54574,99.552755 358.14153,99.942519 357.65929,100.35071 C 357.65929,100.35071 358.54192,100.27701 358.95011,100.27701 z M 361.85846,99.281337 C 363.03059,99.476219 364.09747,100.30323 364.23708,101.11216 C 364.37669,101.93138 364.85114,101.79177 364.85114,101.04874 C 364.85114,100.30323 364.99074,99.012755 364.17401,98.873149 C 363.3548,98.733542 362.20358,98.799093 361.79255,98.799093 C 361.38436,98.799093 361.45027,99.207637 361.85846,99.281337 z M 374.08925,97.516416 C 374.02334,96.699684 372.60106,96.149054 372.60106,96.149054 C 373.00145,96.494172 373.28066,97.189723 373.40964,97.645393 C 373.54925,98.119487 374.16295,98.324999 374.08925,97.516416 z M 374.70295,97.645393 C 374.60019,98.351574 375.31417,97.924605 375.38007,97.237204 C 375.45377,96.560078 374.57149,95.545983 373.54925,95.406377 C 373.54925,95.406377 374.84007,96.763109 374.70295,97.645393 z M 370.28799,97.721928 C 370.90169,97.645393 371.37614,98.119487 372.05291,98.52803 C 372.73251,98.9387 372.66696,98.3987 372.60106,97.850904 C 372.52736,97.310904 371.987,96.902715 371.71842,96.699684 C 371.43921,96.494172 370.55692,96.428267 370.55692,96.428267 L 366.75566,98.119487 C 366.75566,98.119487 369.67429,97.784999 370.28799,97.721928 z M 342.44645,109.50484 C 341.00574,108.50102 340.66062,108.25901 340.34456,108.04535 C 340.02035,107.82142 339.80704,107.72929 339.63838,107.72929 C 339.55405,107.72929 339.47255,107.73992 339.40665,107.75835 C 339.35137,107.77677 339.30389,107.77677 339.23019,107.71866 C 339.17492,107.68181 339.19334,107.65559 339.27767,107.62653 C 339.48035,107.57126 340.42889,107.29205 340.62377,107.23677 C 340.69748,107.20772 340.76338,107.20772 340.81866,107.2552 C 340.89236,107.30268 340.87393,107.3289 340.82929,107.34732 C 340.77401,107.35795 340.73433,107.37638 340.68968,107.41323 C 340.5972,107.48693 340.7159,107.60811 341.03196,107.85047 C 341.3296,108.06378 341.67472,108.30614 343.11578,109.30996 L 344.77795,110.4796 C 345.69744,111.13016 346.95389,112.03122 347.38051,112.31043 C 347.65972,112.48689 347.86275,112.58964 348.05763,112.57122 C 348.15259,112.56059 348.2922,112.54216 348.3737,112.51594 C 348.42897,112.50531 348.48708,112.51594 348.53173,112.54216 C 348.59763,112.58964 348.587,112.62649 348.52393,112.64492 C 348.17102,112.74768 347.39893,113.15586 347.18562,113.22177 C 347.11192,113.2402 347.04602,113.22957 346.98011,113.18492 C 346.93547,113.15586 346.92484,113.12964 346.99074,113.11122 C 347.07224,113.08216 347.11192,113.05311 347.14877,113.02689 C 347.21185,112.97161 346.92484,112.71083 346.66405,112.51594 C 346.29271,112.2261 345.02811,111.31724 344.11925,110.67449 L 342.44645,109.50484 z M 348.2922,110.89842 C 349.03488,111.42 349.70385,111.86504 349.88066,111.88346 C 350.02807,111.89161 350.13082,111.87319 350.22295,111.84661 C 350.28106,111.82819 350.3257,111.83634 350.39161,111.87319 C 350.46531,111.93094 350.43625,111.95752 350.35476,111.97594 C 350.00964,112.07835 349.47992,112.33913 349.2007,112.42346 C 349.127,112.44189 349.07173,112.45004 348.9874,112.39476 C 348.93212,112.34728 348.94275,112.32886 348.99803,112.31043 C 349.0611,112.29201 349.15606,112.25516 349.19291,112.20768 C 349.25633,112.11555 348.56858,111.53055 347.75185,110.9537 L 342.19381,107.01283 C 342.00921,106.87323 341.88803,106.7811 341.94366,106.76268 C 341.99893,106.74425 342.17539,106.81795 342.43618,106.91291 C 342.62326,106.97598 344.97283,107.82142 347.13035,108.55665 C 348.13381,108.89894 350.22295,109.64445 350.46531,109.7263 L 350.49436,109.71815 L 345.72614,106.44661 C 345.14929,106.04622 344.91755,105.93531 344.69362,105.90909 C 344.55401,105.88819 344.42503,105.92752 344.35913,105.95374 C 344.2957,105.96437 344.23795,105.95374 344.18267,105.91689 C 344.10897,105.86161 344.1561,105.84319 344.23795,105.81413 C 344.51716,105.73264 344.807,105.67453 344.91755,105.64831 C 344.97283,105.62988 345.14929,105.54555 345.41007,105.47185 C 345.47598,105.45342 345.5394,105.44279 345.61559,105.49027 C 345.67086,105.53492 345.67086,105.56398 345.60496,105.5824 C 345.55783,105.60083 345.51283,105.61146 345.47598,105.64831 C 345.3998,105.75106 345.55783,105.89846 346.0794,106.27016 L 352.45417,110.77724 C 352.65968,110.92748 352.72275,110.99055 352.6781,111.00897 C 352.62283,111.0196 352.45417,110.97212 352.28834,110.91685 C 351.3848,110.61106 349.46149,109.94209 347.92866,109.42051 C 346.32177,108.88051 344.54622,108.22181 344.267,108.12968 L 344.24858,108.12968 L 348.2922,110.89842 z M 349.38779,106.98661 C 347.94708,105.97216 347.68629,105.78791 347.36988,105.57461 C 347.03539,105.35067 346.84051,105.26634 346.60098,105.26634 C 346.53507,105.26634 346.44295,105.28476 346.36641,105.31382 C 346.30334,105.32161 346.25586,105.32161 346.18996,105.27697 C 346.12653,105.22949 346.13468,105.20043 346.21901,105.18201 C 346.50602,105.10051 346.86956,105.01618 347.01696,104.97933 C 347.18562,104.92405 347.49106,104.81067 347.81775,104.70791 C 348.48708,104.51303 349.37751,104.25472 351.03153,104.83972 C 351.79547,105.10831 353.37366,105.90909 354.4983,106.69677 C 355.697,107.53441 356.20795,108.17468 356.45031,108.64098 C 356.64519,109.03075 356.76637,109.66287 355.7707,109.94988 C 355.38094,110.07106 354.84342,110.23724 354.572,110.31342 C 354.45082,110.35027 354.14539,110.47146 353.93208,110.53488 C 353.85838,110.55331 353.79247,110.54551 353.72657,110.49803 C 353.68157,110.47146 353.67129,110.44275 353.7372,110.42433 C 353.82118,110.39527 353.86618,110.36905 353.89523,110.34 C 353.96114,110.28472 353.72657,110.01579 353.47641,109.8209 C 353.10472,109.53106 352.4648,109.08602 351.58996,108.4826 L 349.38779,106.98661 z M 351.63744,107.83984 C 352.64125,108.54602 353.26275,108.97547 353.44736,109.09665 C 353.68972,109.26248 354.07948,109.53106 354.22972,109.58917 C 354.47988,109.68909 354.88807,109.77342 355.30724,109.64445 C 355.85503,109.48642 356.03149,109.24405 355.85503,108.80681 C 355.67858,108.34299 355.0383,107.78457 354.06106,107.10779 C 352.85456,106.26201 351.25547,105.47185 350.63397,105.26634 C 349.31409,104.82909 348.587,104.93185 348.17102,105.05303 C 348.06826,105.08209 347.8996,105.15579 347.89181,105.20043 C 347.88118,105.24012 347.91023,105.27697 348.02078,105.35067 C 348.33685,105.57461 349.15606,106.15925 349.90688,106.67835 L 351.63744,107.83984 z M 354.44303,105.44279 C 352.96511,104.41275 352.69653,104.21539 352.36984,104.00173 C 352.02755,103.78063 351.83232,103.68567 351.57968,103.68567 C 351.51625,103.68567 351.4135,103.70409 351.32917,103.73315 C 351.27389,103.75157 351.21862,103.74378 351.15271,103.6963 C 351.08716,103.64882 351.10559,103.6226 351.18956,103.60417 C 351.4794,103.51984 351.8511,103.43551 352.00913,103.39086 C 352.18559,103.34338 353.28118,103.01669 353.37366,102.97984 C 353.45799,102.94299 353.52354,102.89799 353.55011,102.86929 C 353.56854,102.85866 353.56854,102.83244 353.59759,102.82181 C 353.62629,102.81401 353.67129,102.84024 353.71877,102.86929 C 353.78185,102.91642 353.87681,103.0089 354.30342,103.32496 C 354.39555,103.39866 354.81436,103.6963 354.91712,103.78063 C 354.9646,103.81748 355.00925,103.86212 354.9724,103.87275 C 354.93555,103.88055 354.88027,103.85433 354.78531,103.78842 C 354.72224,103.74378 354.54578,103.63039 354.40618,103.55669 C 354.19287,103.44614 354.01641,103.38024 353.68972,103.41709 C 353.56854,103.43551 352.97574,103.58575 352.86236,103.6226 C 352.83614,103.63039 352.86236,103.64882 352.92826,103.6963 L 355.39122,105.41657 C 355.45464,105.46122 355.50212,105.49027 355.53082,105.47964 C 355.652,105.44279 356.28165,105.25854 356.39503,105.21106 C 356.50559,105.15579 356.56086,105.10831 356.50559,105.03461 C 356.46873,104.9687 356.43968,104.92405 356.46873,104.91342 C 356.49779,104.91342 356.52401,104.92405 356.58992,104.9609 C 356.64519,104.99775 356.77452,105.11894 357.24862,105.47185 C 357.4357,105.61146 357.81767,105.88004 357.88074,105.92752 C 357.96507,105.98279 358.06783,106.05649 358.02035,106.07492 C 357.9835,106.08555 357.92822,106.05649 357.88074,106.02779 C 357.77799,105.96437 357.64901,105.86941 357.5094,105.78791 C 357.28547,105.6561 357.06401,105.5824 356.82165,105.61146 C 356.70047,105.62988 356.14488,105.78791 356.01307,105.82476 C 355.98685,105.83256 356.0237,105.86161 356.07897,105.89846 L 356.8507,106.43846 C 357.17492,106.67055 358.06783,107.29205 358.35484,107.48693 C 359.03444,107.95323 359.26618,108.02693 359.83275,107.8689 C 359.97236,107.82142 360.20409,107.75835 360.23314,107.63716 C 360.25936,107.50535 360.11976,107.34732 359.75905,107.06031 C 359.65629,106.97598 359.62724,106.94976 359.67472,106.93913 C 359.71157,106.93134 359.7959,106.97598 359.88803,107.04968 C 360.11196,107.19992 360.73346,107.68181 360.90212,107.82142 C 361.11543,108.0085 361.06015,108.02693 360.85464,108.0822 C 360.02763,108.32457 358.98696,108.70405 358.77366,108.76996 C 358.69996,108.78838 358.63405,108.78059 358.56814,108.73311 C 358.5235,108.69626 358.51287,108.6672 358.57877,108.64878 C 358.6631,108.6222 358.70775,108.5935 358.73681,108.56445 C 358.81051,108.50917 358.61562,108.35114 358.36547,108.14811 C 357.9835,107.85047 357.04559,107.26583 356.15267,106.63335 L 354.44303,105.44279 z M 357.93602,104.24409 C 356.49779,103.24063 356.22637,103.05602 355.91031,102.84024 C 355.58645,102.61878 355.39122,102.52417 355.14885,102.53445 C 355.0833,102.53445 354.98303,102.55287 354.90649,102.57165 C 354.85122,102.59008 354.79594,102.59008 354.73003,102.5426 C 354.66696,102.4976 354.68539,102.4689 354.76688,102.45047 C 355.0461,102.36614 355.40964,102.28429 355.56803,102.24744 C 355.78133,102.18153 356.06834,102.06035 356.3107,101.99445 C 356.97968,101.79957 357.61996,102.00508 357.84389,102.07878 C 358.15996,102.18153 358.73681,102.44232 359.23747,102.79524 C 360.58606,103.73315 360.97582,104.56051 360.21472,104.78409 C 360.18566,104.79224 360.13039,104.81067 360.09354,104.81067 C 360.05669,104.81067 360.00921,104.8213 359.9433,104.77382 C 359.8696,104.71854 359.88023,104.68949 359.99078,104.65264 C 360.28842,104.57079 360.11196,104.02016 359.14535,103.35118 C 358.82893,103.13008 358.17838,102.6822 357.40665,102.44232 C 356.90598,102.28429 356.62677,102.30272 356.50559,102.33957 C 356.42125,102.36614 356.35818,102.39484 356.33976,102.43205 C 356.32133,102.45047 356.36598,102.4976 356.46873,102.57165 L 360.25936,105.22949 C 361.12358,105.83256 362.11925,106.44661 362.55649,106.7152 C 362.8357,106.90228 363.07559,107.04189 363.27047,107.01283 C 363.36543,107.00504 363.50503,106.98661 363.58653,106.96819 C 363.64181,106.94976 363.69992,106.95756 363.74456,106.99441 C 363.81047,107.04189 363.79204,107.07094 363.73677,107.08937 C 363.38385,107.18929 363.02031,107.27362 362.8807,107.31047 C 362.75952,107.34732 362.45373,107.4685 362.2298,107.53441 C 362.16673,107.55283 362.10082,107.5422 362.03492,107.49756 C 361.99027,107.46071 361.97964,107.43165 362.04555,107.41323 C 362.11925,107.3948 362.16673,107.35795 362.19295,107.3289 C 362.26665,107.27362 362.0824,107.12622 361.83224,106.92071 C 361.45807,106.63335 360.47267,106.02779 359.60102,105.41657 L 357.93602,104.24409 z M 366.00484,99.431574 C 366.02326,99.420944 366.04948,99.420944 366.07854,99.413149 C 366.14161,99.384093 366.20751,99.376298 366.28121,99.431574 C 366.34712,99.468424 366.33933,99.494645 366.27342,99.5237 C 366.22594,99.531495 366.18129,99.552755 366.14161,99.589605 C 366.06791,99.681731 366.22594,99.829133 366.76594,100.20083 L 372.63791,104.16012 C 372.84342,104.31 372.90932,104.37342 372.86184,104.3837 C 372.80657,104.40212 372.63791,104.34685 372.47173,104.29157 C 371.55259,104.00173 369.60058,103.34338 368.04897,102.83244 C 367.20354,102.55287 366.29999,102.24744 365.60444,102.00508 L 365.7072,101.46508 C 366.20751,101.63374 366.72909,101.8102 367.22976,101.97602 C 368.25165,102.31086 370.36169,103.04575 370.6122,103.11945 L 370.6409,103.11165 L 366.41303,100.37976 C 366.21814,100.24795 366.06791,100.15583 365.93893,100.07149 L 366.00484,99.431574 z M 365.40956,102.28429 L 368.43873,104.29972 C 369.20019,104.81067 369.51625,104.9609 369.69271,104.9687 C 369.85074,104.97933 369.9535,104.9609 370.04562,104.93185 C 370.1009,104.91342 370.15653,104.92405 370.21429,104.9609 C 370.28799,105.01618 370.25893,105.0424 370.18523,105.06366 C 369.83232,105.16358 369.58995,105.21106 369.4872,105.24012 C 369.44255,105.24791 369.21862,105.34004 368.9394,105.42437 C 368.8657,105.45342 368.81043,105.45342 368.7261,105.39815 C 368.67082,105.35846 368.6811,105.33224 368.73637,105.32161 C 368.7998,105.30319 368.8944,105.26634 368.93161,105.21886 C 368.98688,105.11894 368.73637,104.92405 367.89873,104.355 L 365.2331,102.52417 L 365.40956,102.28429 z M 375.01653,98.780668 L 376.10468,99.476219 C 376.17023,99.5237 376.21771,99.552755 376.24429,99.531495 C 376.36547,99.505274 376.98696,99.318188 377.08972,99.262912 C 377.20027,99.217912 377.25838,99.170786 377.20027,99.096731 C 377.16342,99.03118 377.1372,98.99433 377.16342,98.9837 C 377.18184,98.975904 377.22153,98.9837 377.27681,99.02055 C 377.33988,99.059881 377.47169,99.170786 377.95393,99.494645 C 378.14066,99.634251 378.52015,99.887243 378.59669,99.931889 C 378.67039,99.987164 378.78094,100.05307 378.72566,100.07149 C 378.68881,100.08212 378.64133,100.05307 378.59669,100.02401 C 378.4833,99.960944 378.36212,99.887243 378.21472,99.802912 C 377.99078,99.681731 377.76932,99.615826 377.52696,99.644881 C 377.40578,99.663306 376.85799,99.821337 376.72901,99.858188 C 376.71023,99.865983 376.73681,99.895038 376.80271,99.931889 L 377.57444,100.43504 C 377.90893,100.64835 378.80999,101.23335 379.097,101.42043 C 379.79503,101.85484 380.02677,101.93138 380.57492,101.76272 C 380.71452,101.71807 380.94625,101.65216 380.96468,101.53098 C 380.9831,101.4098 380.8435,101.2624 380.48279,100.98319 C 380.38003,100.91728 380.35098,100.88043 380.39031,100.8698 C 380.43531,100.86201 380.50901,100.90913 380.61177,100.97256 C 380.8357,101.12279 381.46783,101.56783 381.63366,101.70744 C 381.85759,101.87327 381.80232,101.89453 381.59681,101.9576 C 380.78043,102.19996 380.36161,102.27366 380.04555,102.36614 C 379.91621,102.40547 379.60795,102.52417 379.38684,102.59008 C 379.32094,102.6085 379.25503,102.6085 379.18133,102.5635 C 379.13385,102.52417 379.12606,102.50575 379.18913,102.47917 C 379.27346,102.46075 379.32094,102.4239 379.34716,102.39484 C 379.41306,102.33957 379.22881,102.18968 378.9574,102.00508 C 378.57826,101.72586 377.79555,101.22555 376.89484,100.63807 L 375.16677,99.51307 C 374.7111,99.226062 374.41346,99.03118 374.21043,98.901849 L 375.01653,98.780668 z M 380.05582,96.578503 C 379.90558,96.549448 379.69228,96.596928 379.61858,96.615353 C 379.5424,96.623503 379.48677,96.605078 379.43149,96.567873 C 379.34716,96.512597 379.39464,96.494172 379.48677,96.483897 C 379.7844,96.420471 380.09267,96.383621 380.21137,96.365196 C 380.27728,96.354566 380.46436,96.28866 380.75137,96.233385 C 380.82507,96.21496 380.89098,96.21496 380.97531,96.270235 C 381.03838,96.307086 381.03058,96.336141 380.96468,96.343936 C 380.9094,96.365196 380.80665,96.391416 380.7698,96.428267 C 380.68547,96.512597 381.53125,97.023897 381.53125,97.023897 L 386.84692,100.33228 C 387.07086,100.47189 387.14456,100.52716 387.09992,100.54559 C 387.03401,100.56401 386.85755,100.51689 386.68889,100.46161 C 385.73255,100.18205 383.70684,99.57118 382.08968,99.096731 C 380.39846,98.593936 378.90212,98.240668 378.60448,98.148542 L 378.59669,98.148542 L 382.56377,100.51689 C 383.37236,101.00941 383.70684,101.14901 383.89145,101.15964 C 384.04169,101.16744 384.15224,101.14901 384.24684,101.12279 C 384.30247,101.10437 384.35775,101.10437 384.41303,101.14122 C 384.49736,101.19649 384.4683,101.22555 384.3946,101.24398 C 384.04169,101.35453 383.79932,101.39138 383.69657,101.42823 C 383.64129,101.43886 383.41984,101.53098 383.14062,101.62311 C 383.07472,101.64153 383.00881,101.65216 382.91669,101.59689 C 382.86141,101.56004 382.86921,101.53098 382.92732,101.52035 C 383.00102,101.49413 383.08535,101.45728 383.1222,101.4098 C 383.17747,101.31768 382.89826,101.13059 382.01562,100.58279 L 376.68153,97.321534 C 376.47602,97.189723 376.34704,97.107873 376.40232,97.089448 C 376.45759,97.071023 376.64468,97.134448 376.92389,97.218778 C 377.11877,97.284684 378.93897,97.600747 381.20704,98.269723 C 382.26614,98.585786 384.4683,99.273542 384.72909,99.336613 L 384.74751,99.336613 L 381.20704,97.218778 C 381.20704,97.218778 380.2957,96.615353 380.05582,96.578503 z "
       style="fill:black;fill-opacity:1;fill-rule:evenodd"
       id="path2078" />
  </g>
</svg>
